# xmcd CD database file
#
# Track frame offsets:
#	150
#	25630
#	38424
#	58702
#	85558
#	122462
#	136351
#	160103
#	190747
#	212104
#	235573
#	251554
#	261264
#	279040
#	298398
#	335086
#
# Disc length: 4655 seconds
#
# Revision: 0
# Processed by: cddbd v1.5.2PL0 Copyright (c) Steve Scherf et al.
# Submitted via: CDex 1.70beta1
#
DISCID=d8122d10
DTITLE=Various Artist - Les Trésors du Jazz - CD 60
DYEAR=1956
DGENRE=Jazz
TTITLE0=Louis Armstrong and his All Stars - Basin Street Blues
TTITLE1=Martial Solal - Love me or leave me
TTITLE2=Miles Davis New Quintet - Tadd's Delight
TTITLE3=Miles Davis New Quintet - Round about Midnight
TTITLE4=Erroll Garner Trio - The man I love
TTITLE5=Billie Holiday with Tony Scott's Orchestra - Strange Fruit
TTITLE6=Sonny Rollins Quartet - Strode Rode
TTITLE7=Sonny Rollins Quartet - St. Thomas
TTITLE8=Count Basie and Ella Fitzgerald - April in Paris
TTITLE9=Count Basie and Ella Fitzgerald - Every Day I have the Blues
TTITLE10=Jazz Group de Paris - Tension Détente
TTITLE11=Jazz Group de Paris - Paradoxe 1
TTITLE12=Al Cohn - Blues for the Highbrow
TTITLE13=Shorty Rogers and his Orchestra - Blues Express
TTITLE14=Duke Ellington and his Orchestra - Blues to be there
TTITLE15=Pete Rugolo - Later Team
EXTD=YEAR: 1956
EXTT0=
EXTT1=
EXTT2=
EXTT3=
EXTT4=
EXTT5=
EXTT6=
EXTT7=
EXTT8=
EXTT9=
EXTT10=
EXTT11=
EXTT12=
EXTT13=
EXTT14=
EXTT15=
PLAYORDER=
